<svg xmlns="http://www.w3.org/2000/svg" viewBox="0 0 400 399.97"><defs><style>.cls-1{fill:#0d6b64;}</style></defs><g id="Layer_2" data-name="Layer 2"><g id="Layer_1-2" data-name="Layer 1"><path class="cls-1" d="M192.59,303.61V96.93c0-.24,0-.46,0-.69s0-.46,0-.69V89.48h-.31A96.2,96.2,0,0,0,96.39,0,96.33,96.33,0,0,0,0,96.24v152.1l.07-.11V399.87H96.33a96.26,96.26,0,0,0,96.26-96.26"/><path class="cls-1" d="M371.85,235.65a96.24,96.24,0,0,0-164.32,67.94A110.89,110.89,0,0,1,151.67,400h152.1a96.29,96.29,0,0,0,68.08-164.32"/></g></g></svg>